0
SECTION
2
HEADER
9
$INSUNITS
70
4
9
$ACADVER
1
AC1014
9
$HANDSEED
5
FFFF
0
ENDSEC
0
SECTION
2
TABLES
0
TABLE
2
VPORT
5
8
100
AcDbSymbolTable
0
ENDTAB
0
TABLE
2
LTYPE
5
5
100
AcDbSymbolTable
0
LTYPE
5
14
100
AcDbSymbolTableRecord
100
AcDbLinetypeTableRecord
2
BYBLOCK
70
0
0
LTYPE
5
15
100
AcDbSymbolTableRecord
100
AcDbLinetypeTableRecord
2
BYLAYER
70
0
0
ENDTAB
0
TABLE
2
LAYER
5
2
100
AcDbSymbolTable
70
2
0
LAYER
5
50
100
AcDbSymbolTableRecord
100
AcDbLayerTableRecord
2
0
70
0
6
CONTINUOUS
0
ENDTAB
0
TABLE
2
STYLE
5
3
100
AcDbSymbolTable
70
1
0
STYLE
5
11
100
AcDbSymbolTableRecord
100
AcDbTextStyleTableRecord
2
STANDARD
70
0
0
ENDTAB
0
TABLE
2
VIEW
5
6
100
AcDbSymbolTable
70
0
0
ENDTAB
0
TABLE
2
UCS
5
7
100
AcDbSymbolTable
70
0
0
ENDTAB
0
TABLE
2
APPID
5
9
100
AcDbSymbolTable
70
2
0
APPID
5
12
100
AcDbSymbolTableRecord
100
AcDbRegAppTableRecord
2
ACAD
70
0
0
ENDTAB
0
TABLE
2
DIMSTYLE
5
A
100
AcDbSymbolTable
70
1
0
ENDTAB
0
TABLE
2
BLOCK_RECORD
5
1
100
AcDbSymbolTable
70
1
0
BLOCK_RECORD
5
1F
100
AcDbSymbolTableRecord
100
AcDbBlockTableRecord
2
*MODEL_SPACE
0
BLOCK_RECORD
5
1B
100
AcDbSymbolTableRecord
100
AcDbBlockTableRecord
2
*PAPER_SPACE
0
ENDTAB
0
ENDSEC
0
SECTION
2
BLOCKS
0
BLOCK
5
20
100
AcDbEntity
100
AcDbBlockBegin
2
*MODEL_SPACE
0
ENDBLK
5
21
100
AcDbEntity
100
AcDbBlockEnd
0
BLOCK
5
1C
100
AcDbEntity
100
AcDbBlockBegin
2
*PAPER_SPACE
0
ENDBLK
5
1D
100
AcDbEntity
100
AcDbBlockEnd
0
ENDSEC
0
SECTION
2
ENTITIES
0
LWPOLYLINE
5
100
100
AcDbEntity
8
0
100
AcDbPolyline
90
44
70
1
43
0.0
10
-504.00206759317933
20
87.715524186481971
10
-504.00206759317933
20
50.215524186481971
10
-510.00058495814289
20
50.215524186481971
10
-510.00058495814289
20
25.215524186481968
10
-504.00206759317933
20
25.215524186481968
10
-504.00206759317933
20
0
10
-300.00058495814289
20
0
10
-300.00058495814289
20
25.215524186481968
10
-304.00058495814284
20
25.215524186481968
10
-304.00058495814284
20
50.215524186481971
10
-300.00058495814289
20
50.215524186481971
10
-300.00058495814289
20
87.715524186481971
10
-304.00058495814284
20
87.715524186481971
10
-304.00058495814284
20
112.71552418648197
10
-300.00058495814289
20
112.71552418648197
10
-300.00058495814289
20
150.21552418648196
10
-304.00058495814284
20
150.21552418648196
10
-304.00058495814284
20
175.21552418648199
10
-300.00058495814289
20
175.21552418648199
10
-300.00058495814289
20
212.71552418648199
10
-304.00058495814284
20
212.71552418648199
10
-304.00058495814284
20
237.71552418648199
10
-300.00058495814289
20
237.71552418648199
10
-300.00058495814289
20
275.21552418648196
10
-304.00058495814284
20
275.21552418648196
10
-304.00058495814284
20
300
10
-450.00058495814289
20
300
10
-450.00058495814289
20
275.28545615978976
10
-454.00058495814284
20
275.28545615978976
10
-454.00058495814284
20
300
10
-510.00058495814289
20
300
10
-510.00058495814289
20
275.21552418648196
10
-504.00206759317933
20
275.21552418648196
10
-504.00206759317933
20
237.71552418648199
10
-510.00058495814289
20
237.71552418648199
10
-510.00058495814289
20
212.71552418648199
10
-504.00206759317933
20
212.71552418648199
10
-504.00206759317933
20
175.21552418648199
10
-510.00058495814289
20
175.21552418648199
10
-510.00058495814289
20
150.21552418648196
10
-504.00206759317933
20
150.21552418648196
10
-504.00206759317933
20
112.71552418648197
10
-510.00058495814289
20
112.71552418648197
10
-510.00058495814289
20
87.715524186481971
0
LWPOLYLINE
5
101
100
AcDbEntity
8
0
100
AcDbPolyline
90
4
70
1
43
0.0
10
-454.00058495814284
20
175.21338676517996
10
-450.00058495814289
20
175.21338676517996
10
-450.00058495814289
20
150.30180541425472
10
-454.00058495814284
20
150.30180541425472
0
LWPOLYLINE
5
102
100
AcDbEntity
8
0
100
AcDbPolyline
90
4
70
1
43
0.0
10
-454.00058495814284
20
237.7481157751379
10
-450.00058495814289
20
237.7481157751379
10
-450.00058495814289
20
212.62966532051209
10
-454.00058495814284
20
212.62966532051209
0
LWPOLYLINE
5
103
100
AcDbEntity
8
0
100
AcDbPolyline
90
4
70
1
43
0.0
10
-454.00058495814284
20
112.6528199144893
10
-450.00058495814289
20
112.6528199144893
10
-450.00058495814289
20
87.698270911541044
10
-454.00058495814284
20
87.698270911541044
0
LWPOLYLINE
5
104
100
AcDbEntity
8
0
100
AcDbPolyline
90
4
70
1
43
0.0
10
-454.00058495814284
20
50.178315940600271
10
-450.00058495814289
20
50.178315940600271
10
-450.00058495814289
20
25.278867505122609
10
-454.00058495814284
20
25.278867505122609
0
ENDSEC
0
SECTION
2
OBJECTS
0
DICTIONARY
5
C
100
AcDbDictionary
3
ACAD_GROUP
350
D
3
ACAD_MLINESTYLE
350
17
0
DICTIONARY
5
D
100
AcDbDictionary
0
DICTIONARY
5
1A
330
C
100
AcDbDictionary
0
DICTIONARY
5
17
100
AcDbDictionary
0
ENDSEC
0
EOF
